<?xml version="1.0" encoding="UTF-8"?>
<svg id="SVGRoot" width="64" height="64" version="1.1" viewBox="0 0 64 64" xmlns="http://www.w3.org/2000/svg" xmlns:xlink="http://www.w3.org/1999/xlink">
 <defs>
  <linearGradient id="linearGradient2071" x1="40" x2="4.2119" y1="89.104" y2="4.0558" gradientTransform="matrix(.2988 0 0 .38146 .49536 .39426)" gradientUnits="userSpaceOnUse">
   <stop stop-color="#068d8d" offset="0"/>
   <stop stop-color="#08bfb6" offset="1"/>
  </linearGradient>
  <linearGradient id="linearGradient2079" x1="48.919" x2=".067287" y1="74.573" y2="9.7672" gradientTransform="matrix(.2988 0 0 .38146 .49536 .39426)" gradientUnits="userSpaceOnUse">
   <stop stop-color="#034747" offset="0"/>
   <stop stop-color="#058f8f" offset="1"/>
  </linearGradient>
  <linearGradient id="linearGradient1520" x1="39.475" x2="62.233" y1="29.093" y2="57.819" gradientTransform="matrix(1.0384 0 0 1 -2.4383 4)" gradientUnits="userSpaceOnUse">
   <stop stop-color="#fcfaee" offset="0"/>
   <stop stop-color="#ffd977" offset="1"/>
  </linearGradient>
 </defs>
 <g>
  <path d="m1.0072 1-0.0067365 43.867 6.9492-9.3892 7.0503 9.4635v-43.941z" fill="url(#linearGradient2071)" stroke="url(#linearGradient2079)" stroke-width="2"/>
  <g transform="translate(-2,-3)" fill="none" stroke="#38383d">
   <path d="m31.5 9.5h19.794" stroke-linecap="square" stroke-width="3"/>
   <path d="m23.5 9.5h2.0003" stroke-linecap="round" stroke-width="3"/>
  </g>
  <g transform="translate(-2,4)" fill="none" stroke="#38383d">
   <path d="m31.5 9.5h19.794" stroke-linecap="square" stroke-width="3"/>
   <path d="m23.5 9.5h2.0003" stroke-linecap="round" stroke-width="3"/>
  </g>
  <g fill="none" stroke="#38383d">
   <path d="m29.5 20.5h19.794" stroke-linecap="square" stroke-width="3"/>
   <path d="m21.5 20.5h2.0003" stroke-linecap="round" stroke-width="3"/>
  </g>
  <path d="m55.569 31.448v7.5891h7.9836m-27.053-7.5373h19.124l7.8744 7.4667v24.533h-26.998z" fill="url(#linearGradient1520)" stroke="#8a8470"/>
  <ellipse cx="50" cy="50.015" rx="8.5" ry="8.5149" fill="#fff" fill-opacity=".94118" stroke="#585858" stroke-linecap="square" stroke-linejoin="bevel"/>
  <g fill="none" stroke="#585858">
   <path d="m41.914 51.254 1.3341 1.1247c1.0596 0.53492 2.6839 0.70112 3.5491 0.9078 0.91445 0.21845 1.9561 0.23662 3.2208 0.23326 0 0 2.0225-0.0865 3.7365-0.37155 2.1193-0.35244 3.5834-1.1279 3.5834-1.1279l0.78808-0.76631"/>
   <path d="m42.644 46.419 1.6689 1.0702c1.1074 0.52709 1.568 0.42906 2.4332 0.63574 0.91445 0.21845 2.0677 0.23662 3.3324 0.23326 0 0 1.3767 0.02625 3.067-0.37155 1.7288-0.40686 1.798-0.52932 1.798-0.52932l2.0155-1.0928"/>
   <path d="m48.579 42.183c-0.62822 1.9458-0.76272 2.5761-1.2809 4.7951-0.35177 1.4929-0.33003 2.2388-0.3371 3.8565 0.01541 1.3525 0.09606 2.2344 0.49679 3.9971 0.22979 1.1218 0.54933 1.7929 1.0654 3.0765"/>
   <path d="m51.951 42.264c0.62822 1.9458 0.76272 2.5761 1.2809 4.7951 0.35177 1.4929 0.33003 2.2388 0.3371 3.8565-0.01541 1.3525-0.09606 2.2344-0.4968 3.9971-0.22979 1.1218-0.54933 1.7929-1.0654 3.0765"/>
  </g>
  <path d="m24.5 59.5h4v-6h6v-4h-6v-6h-4v6h-6v4h6z" fill="#34c604" stroke="#236809" stroke-width="1px"/>
  <g transform="translate(-1)" fill="none" stroke="#38383d">
   <path d="m22.5 27.5h2.0003" stroke-linecap="round" stroke-width="3"/>
   <path d="m30.5 27.5h19.794" stroke-linecap="square" stroke-width="3"/>
  </g>
 </g>
</svg>
