<?xml version="1.0" encoding="UTF-8"?>
<svg id="SVGRoot" width="64" height="64" version="1.1" viewBox="0 0 64 64" xmlns="http://www.w3.org/2000/svg" xmlns:xlink="http://www.w3.org/1999/xlink">
 <defs>
  <linearGradient id="linearGradient1520" x1="39.475" x2="62.233" y1="29.093" y2="57.819" gradientTransform="matrix(1.0384 0 0 1 -2.4383 4)" gradientUnits="userSpaceOnUse">
   <stop stop-color="#f8f6dd" offset="0"/>
   <stop stop-color="#ffd985" offset="1"/>
  </linearGradient>
 </defs>
 <g>
  <g stroke-width="2">
   <path d="m56.151 35.64v-2.8876l0.64082 0.61358c0.35245 0.33747 1.7048 1.6222 3.0052 2.855 1.3004 1.2328 2.3644 2.2561 2.3644 2.274 0 0.01788-1.3523 0.03251-3.0052 0.03251h-3.0052z" fill="none" stroke="#f9e8ca" stroke-linecap="round" stroke-linejoin="round"/>
   <path d="m57.212 36.352v-1.1146l0.86179 0.79728c0.47398 0.4385 0.99886 0.94006 1.1664 1.1146l0.3046 0.3173h-2.3328z" fill="none" stroke="#f9e8ca" stroke-linecap="round" stroke-linejoin="round"/>
   <path d="m1.0072 1-0.0067365 43.867 6.9492-9.3892 7.0503 9.4635v-43.941z" fill="#7a7a7a" stroke="#a3a3a3"/>
  </g>
  <g fill="none" stroke="#d7d7db">
   <path d="m29.5 6.5h19.794" stroke-linecap="square" stroke-width="3"/>
   <path d="m21.5 6.5h2.0003" stroke-linecap="round" stroke-width="3"/>
  </g>
  <path d="m55.569 31.448v7.5891h7.9836m-27.053-7.5373h19.124l7.8744 7.4667v24.533h-26.998z" fill="url(#linearGradient1520)" stroke="#e2970c"/>
  <path d="m24.5 59.5h4v-6h6v-4h-6v-6h-4v6h-6v4h6z" fill="#34c604" stroke="#236809" stroke-width="1px"/>
  <g transform="translate(0,7)" fill="none" stroke="#d7d7db">
   <path d="m29.5 6.5h19.794" stroke-linecap="square" stroke-width="3"/>
   <path d="m21.5 6.5h2.0003" stroke-linecap="round" stroke-width="3"/>
  </g>
  <g transform="translate(0,14)" fill="none" stroke="#d7d7db">
   <path d="m29.5 6.5h19.794" stroke-linecap="square" stroke-width="3"/>
   <path d="m21.5 6.5h2.0003" stroke-linecap="round" stroke-width="3"/>
  </g>
  <g transform="translate(0,21)" fill="none" stroke="#d7d7db">
   <path d="m29.5 6.5h19.794" stroke-linecap="square" stroke-width="3"/>
   <path d="m21.5 6.5h2.0003" stroke-linecap="round" stroke-width="3"/>
  </g>
  <g fill="none" stroke="#b87800">
   <ellipse cx="50.001" cy="50.016" rx="8.5" ry="8.5149" stroke-linecap="square" stroke-linejoin="bevel" stroke-width="1.0016"/>
   <path d="m42.986 45.362s0.4377-0.10488 0.66069-0.10485c0.45791 4.8e-5 0.96265-0.01765 1.3567 0.21561 0.45252 0.26788 0.69936 0.79391 0.96653 1.2469 0.45516 0.77166 0.39226 1.8743 1.0625 2.4688 0.63373 0.56209 1.6854 0.32894 2.4375 0.71875 0.56618 0.29346 1.3455 0.56879 1.5 1.1875 0.14463 0.57911-0.36201 1.1609-0.71653 1.6411-0.21748 0.29459 0.23824-0.42674-0.83265 0.71653-0.17333 0.62188 3.48e-4 1.3438 0.4675 2.1506 1.1014 1.0265 0.23425 2.7699 0.23425 2.7699" stroke-width="1px"/>
   <path d="m53.125 57.933s0.7242-1.4544 2.2087-3.0319c0.85537-0.90893 0.9639-1.5295 0.14338-2.4215-0.6266-0.68124-1.3847-0.29094-2-0.62056-0.42893-0.22978-0.7491-0.62149-1.1326-0.92103-0.41046-0.32062-0.89119-0.55998-1.25-0.9375-0.42394-0.44605-0.8336-0.68702-1.0312-1.5312-0.44657-1.9075 1.8429-0.63073 2.7866-1.0969 0.68254-0.33716 0.87041-1.5642 1.3079-2.3301 0.61386-1.0748-0.24076-1.2154-0.24076-1.2154-0.39168-0.22292-1.22-0.48317-1.4511-0.54066-0.09982-0.02484 0.01799 0.68675-0.14905 1.5575-0.60738-0.17076-1.5663-0.67136-1.9982-0.99096 0.28896-0.30529 0.83861-0.96359 1.1334-1.1465 0.34785-0.21579 0.75876-0.55381 1.0631-0.76997" stroke-width="1px"/>
  </g>
 </g>
</svg>
