<?xml version="1.0" encoding="UTF-8"?>
<svg id="SVGRoot" width="64" height="64" version="1.1" viewBox="0 0 64 64" xmlns="http://www.w3.org/2000/svg" xmlns:xlink="http://www.w3.org/1999/xlink">
 <defs>
  <linearGradient id="linearGradient1520" x1="39.475" x2="62.233" y1="29.093" y2="57.819" gradientTransform="matrix(1.0384 0 0 1 -2.4383 4)" gradientUnits="userSpaceOnUse">
   <stop stop-color="#f8f6dd" offset="0"/>
   <stop stop-color="#ffd985" offset="1"/>
  </linearGradient>
 </defs>
 <g>
  <g stroke-width="2">
   <path d="m56.151 35.64v-2.8876l0.64082 0.61358c0.35245 0.33747 1.7048 1.6222 3.0052 2.855 1.3004 1.2328 2.3644 2.2561 2.3644 2.274 0 0.01788-1.3523 0.03251-3.0052 0.03251h-3.0052z" fill="none" stroke="#f9e8ca" stroke-linecap="round" stroke-linejoin="round"/>
   <path d="m57.212 36.352v-1.1146l0.86179 0.79728c0.47398 0.4385 0.99886 0.94006 1.1664 1.1146l0.3046 0.3173h-2.3328z" fill="none" stroke="#f9e8ca" stroke-linecap="round" stroke-linejoin="round"/>
   <path d="m1.0072 1-0.0067365 43.867 6.9492-9.3892 7.0503 9.4635v-43.941z" fill="#a3a3a3" stroke="#ccc"/>
  </g>
  <g fill="none" stroke="#d7d7db">
   <path d="m29.5 6.5h19.794" stroke-linecap="square" stroke-width="3"/>
   <path d="m21.5 6.5h2.0003" stroke-linecap="round" stroke-width="3"/>
  </g>
  <path d="m55.569 31.448v7.5891h7.9836m-27.053-7.5373h19.124l7.8744 7.4667v24.533h-26.998z" fill="url(#linearGradient1520)" stroke="#e2970c"/>
  <g fill="none" stroke="#b87800">
   <ellipse cx="50" cy="50.015" rx="8.5" ry="8.5149" stroke-linecap="square" stroke-linejoin="bevel"/>
   <path d="m48.535 41.873c-0.62822 1.9458-0.71853 2.8854-1.2367 5.1045-0.35177 1.4929-0.33003 2.2388-0.3371 3.8565 0.01541 1.3525 0.09606 2.2344 0.49679 3.9971 0.22979 1.1218 0.63772 2.0139 1.1538 3.2975"/>
   <path d="m51.951 41.999c0.62822 1.9458 0.76272 2.8412 1.2809 5.0603 0.35177 1.4929 0.33003 2.2388 0.3371 3.8565-0.01541 1.3525-0.09606 2.2344-0.4968 3.9971-0.22979 1.1218-0.50514 1.8371-1.0212 3.1207"/>
  </g>
  <path d="m24.5 59.5h4v-6h6v-4h-6v-6h-4v6h-6v4h6z" fill="#34c604" stroke="#236809" stroke-width="1px"/>
  <g transform="translate(0,7)" fill="none" stroke="#d7d7db">
   <path d="m29.5 6.5h19.794" stroke-linecap="square" stroke-width="3"/>
   <path d="m21.5 6.5h2.0003" stroke-linecap="round" stroke-width="3"/>
  </g>
  <g transform="translate(0,14)" fill="none" stroke="#d7d7db">
   <path d="m29.5 6.5h19.794" stroke-linecap="square" stroke-width="3"/>
   <path d="m21.5 6.5h2.0003" stroke-linecap="round" stroke-width="3"/>
  </g>
  <g transform="translate(0,21)" fill="none" stroke="#d7d7db">
   <path d="m29.5 6.5h19.794" stroke-linecap="square" stroke-width="3"/>
   <path d="m21.5 6.5h2.0003" stroke-linecap="round" stroke-width="3"/>
  </g>
  <path d="m42.205 47.544 15.645 4e-6" fill="none" stroke="#b87800" stroke-width="1px"/>
  <path d="m42.205 52.5 15.645 4e-6" fill="none" stroke="#b87800" stroke-width="1px"/>
 </g>
</svg>
