<?xml version="1.0" encoding="UTF-8"?>
<svg id="SVGRoot" width="32" height="32" version="1.1" viewBox="0 0 32 32" xmlns="http://www.w3.org/2000/svg">
 <g fill="none" stroke="#f0f0ff" stroke-width="2">
  <g>
   <path d="m12.78 1.669c-1.1095 3.425-1.269 5.0791-2.1842 8.9852-0.62125 2.6278-0.58287 3.941-0.59535 6.7884 0.02721 2.3808 0.16965 3.9332 0.87738 7.036 0.40582 1.9747 1.1263 3.5449 2.0377 5.8044"/>
   <path d="m19.201 1.8904c1.1095 3.425 1.347 5.0013 2.2622 8.9074 0.62125 2.6278 0.58287 3.941 0.59535 6.7884-0.02722 2.3808-0.16965 3.9332-0.87738 7.036-0.40582 1.9747-0.89212 3.2338-1.8036 5.4933"/>
   <path d="m2.2341 21 27.63 7e-6"/>
   <path d="m2.2341 11 27.63 7e-6"/>
  </g>
  <ellipse cx="16" cy="16" rx="15.012" ry="14.988" stroke-linecap="square" stroke-linejoin="bevel"/>
 </g>
</svg>
