<?xml version="1.0" encoding="UTF-8"?>
<svg id="SVGRoot" width="32px" height="32px" version="1.1" viewBox="0 0 32 32" xmlns="http://www.w3.org/2000/svg" xmlns:xlink="http://www.w3.org/1999/xlink">
 <defs>
  <linearGradient id="linearGradient1472" x1="7.8125" x2="1.722" y1="19.9" y2="3.6534" gradientTransform="matrix(.80971 0 0 .99392 .62077 -1.4525)" gradientUnits="userSpaceOnUse">
   <stop stop-color="#068d8d" offset="0"/>
   <stop stop-color="#08bfb6" offset="1"/>
  </linearGradient>
  <linearGradient id="linearGradient1480" x1="-.70094" x2="11.567" y1="4.4134" y2="21.724" gradientTransform="matrix(.80971 0 0 .99392 .62077 -1.4525)" gradientUnits="userSpaceOnUse">
   <stop stop-color="#058f8f" offset="0"/>
   <stop stop-color="#034747" offset="1"/>
  </linearGradient>
  <linearGradient id="linearGradient3340" x1="18.294" x2="30.963" y1="23.149" y2="30.605" gradientUnits="userSpaceOnUse">
   <stop stop-color="#7cb4ee" offset="0"/>
   <stop stop-color="#587a85" offset="1"/>
  </linearGradient>
  <linearGradient id="linearGradient3376" x1="18.696" x2="26.231" y1="24.042" y2="29.042" gradientUnits="userSpaceOnUse">
   <stop stop-color="#f5fcff" offset="0"/>
   <stop stop-color="#c0d9e4" offset="1"/>
  </linearGradient>
  <linearGradient id="linearGradient981" x1="15.098" x2="29.902" y1="4.125" y2="18.054" gradientUnits="userSpaceOnUse">
   <stop stop-color="#fcfcfd" offset="0"/>
   <stop stop-color="#d9dce8" offset="1"/>
  </linearGradient>
  <linearGradient id="linearGradient991" x1="31.036" x2="14.232" y1="19.125" y2="3.2321" gradientUnits="userSpaceOnUse">
   <stop stop-color="#8e91b9" offset="0"/>
   <stop stop-color="#cccee0" offset="1"/>
  </linearGradient>
 </defs>
 <g>
  <g>
   <path d="m1.001 1.0025 0.025704 26.307 4.4651-5.2184 4.4825 5.2184 0.025707-26.284z" fill="url(#linearGradient1472)" stroke="url(#linearGradient1480)" stroke-width="2"/>
   <path d="m24.821 31.429h-8.9732s-1.2656-0.34032-1.6915-0.79509c-0.39294-0.41967-0.61631-1.031-0.62958-1.6057-0.01544-0.66884 0.25914-1.3543 0.6456-1.9004 0.29918-0.42276 0.7506-0.74431 1.2212-0.96069 0.52143-0.23977 1.689-0.33435 1.689-0.33435s0.38572-1.2928 0.76117-1.8403c0.3543-0.5166 0.8251-0.97167 1.3613-1.2956 0.55351-0.33441 1.1248-0.45782 1.927-0.46555 0.42099-0.0041 1.5499 0.1218 2.4083 0.39361 0.73866 0.2339 1.4235 0.6183 2.167 1.3946 0.91146 0.95172 1.457 2.7251 1.457 2.7251s0.84368-0.25187 1.2783-0.25747c0.47656-0.0061 0.96884 0.06205 1.4085 0.24609 0.37732 0.15796 0.75732 0.34553 0.99878 0.60137 0.23612 0.25018 0.46271 0.68691 0.56523 1.0649 0.08361 0.30826 0.11844 1.2176-0.01307 1.65-0.12053 0.39628-0.34562 0.81604-0.58857 1.0273-0.41926 0.36454-0.99223 0.40222-0.99223 0.40222z" fill="url(#linearGradient3376)" stroke="url(#linearGradient3340)" stroke-width="1px"/>
   <rect x="13.5" y="2.5" width="18" height="17" fill="url(#linearGradient981)" stroke="url(#linearGradient991)" stroke-linecap="square"/>
  </g>
  <path d="m16.5 6.5 1.067-0.00925" fill="none" stroke="#2a2a2e" stroke-linecap="round" stroke-width="1px"/>
  <path d="m20.003 6.5 7.9712 3.781e-4" fill="none" stroke="#2a2a2e" stroke-width="1px"/>
  <g fill="none" stroke="#38383d" stroke-width="1px">
   <path d="m16.5 6.5092 1.067-0.00925" stroke-linecap="round"/>
   <path d="m20.003 6.5092 7.9712 3.781e-4"/>
  </g>
  <g transform="translate(0,3)" fill="none" stroke="#38383d" stroke-width="1px">
   <path d="m16.5 6.5092 1.067-0.00925" stroke-linecap="round"/>
   <path d="m20.003 6.5092 7.9712 3.781e-4"/>
  </g>
  <g transform="translate(0,6)" fill="none" stroke="#38383d" stroke-width="1px">
   <path d="m16.5 6.5092 1.067-0.00925" stroke-linecap="round"/>
   <path d="m20.003 6.5092 7.9712 3.781e-4"/>
  </g>
  <g transform="translate(0,9)" fill="none" stroke="#38383d" stroke-width="1px">
   <path d="m16.5 6.5092 1.067-0.00925" stroke-linecap="round"/>
   <path d="m20.003 6.5092 7.9712 3.781e-4"/>
  </g>
 </g>
</svg>
