<?xml version="1.0" encoding="UTF-8"?>
<svg id="SVGRoot" width="48" height="48" version="1.1" viewBox="0 0 48 48" xmlns="http://www.w3.org/2000/svg" xmlns:xlink="http://www.w3.org/1999/xlink">
 <defs>
  <linearGradient id="linearGradient6101" x1="70.489" x2="121.96" y1="92.925" y2="115.61" gradientTransform="matrix(.50001 0 0 .56495 -14.986 -19.236)" gradientUnits="userSpaceOnUse">
   <stop stop-color="#f5fcff" offset="0"/>
   <stop stop-color="#c0d9e4" offset="1"/>
  </linearGradient>
  <linearGradient id="linearGradient6099" x1="61.442" x2="116.16" y1="86.68" y2="115.85" gradientTransform="matrix(.48444 0 0 .49747 -13.554 -11.849)" gradientUnits="userSpaceOnUse">
   <stop stop-color="#9fc6ee" offset="0"/>
   <stop stop-color="#587a85" offset="1"/>
  </linearGradient>
  <linearGradient id="linearGradient7" x1="29.768" x2="46.674" y1="5.7091" y2="26.67" gradientTransform="matrix(1.2072 0 0 1.1344 -33.906 -4.6046)" gradientUnits="userSpaceOnUse">
   <stop stop-color="#fcfcfc" offset="0"/>
   <stop stop-color="#e0e0e0" offset=".5"/>
   <stop stop-color="#ccc" offset="1"/>
  </linearGradient>
  <linearGradient id="linearGradient5" x1="33.488" x2="41.01" y1="6.8064" y2="14.744" gradientUnits="userSpaceOnUse">
   <stop stop-color="#d5f1fa" offset="0"/>
   <stop stop-color="#55b5d8" offset="1"/>
  </linearGradient>
  <linearGradient id="linearGradient4" x1="10.25" x2="18.813" y1="6.3125" y2="14.688" gradientUnits="userSpaceOnUse">
   <stop stop-color="#d5e5fa" offset="0"/>
   <stop stop-color="#558bd8" offset="1"/>
  </linearGradient>
 </defs>
 <path d="m17.757 46.891c-1.3962-0.24738-2.3842-1.3268-2.6976-2.9474-0.08695-0.44963-0.09262-1.4168-0.01105-1.889 0.46624-2.6993 2.3322-4.9066 4.6305-5.4774 0.17809-0.04424 0.4163-0.06456 0.82811-0.07064l0.57811-0.0086 0.11353-0.91149c0.12622-1.0134 0.17266-1.1989 0.45351-1.8119 0.24633-0.53764 0.53828-0.98261 0.96428-1.4697 2.5067-2.8663 7.5251-1.5978 9.7068-0.48424 0.38104 0.19448 1.1403 0.81042 1.3651 1.1267 0.15531 0.21859 0.1883 0.04078 0.25566 0.32662 0.06955 0.29513 0.65193 1.4408 0.70884 1.4221 0.61494-0.20223 1.6286-0.45014 2.2622-0.54002 0.57149-0.08109 1.5038-0.34964 1.9211-0.24603 0.67553 0.16762 1.4539 0.23196 1.9136 0.76773 0.34422 0.40115 0.62225 0.65642 0.78936 1.2169 0.08543 0.28652 0.50211 1.2034 0.55076 1.8233l0.03801 0.61802-0.13946-0.02712c0.07062 0.0097 0.22666 0.027 0.34676 0.03859 0.49679 0.04792 2.0814 0.73874 2.5779 1.1238 0.23171 0.17972 0.84955 0.80831 1.0969 1.1159 0.76721 0.95435 0.9798 1.682 0.98064 3.3564 3.11e-4 0.62837-0.0108 0.84956-0.05355 1.058-0.17528 0.85641-0.67708 1.4031-1.5389 1.6766-0.69546 0.22068-0.12447 0.20412-8.0001 0.23196-12.1 0.04278-19.331 0.0357-19.641-0.01921z" fill="url(#linearGradient6101)" stroke-width="0"/>
 <g fill="none">
  <path d="m34.504 35.594s1.4003-0.9491 2.3892-1.0761c0.89508-0.11494 1.5161-0.17245 2.4375-0.05072 0.67499 0.08917 1.1306 0.34613 1.4752 0.62168 0.62539 0.5001 1.2587 0.92274 1.6119 1.8641 0.27196 0.72469 0.16273 1.392 0.16273 1.392m-0.47573 0.02598c0.87436 0.18307 2.0316 0.06141 3.1746 0.82656 0.82992 0.56431 1.5936 1.2976 1.9748 2.6043 0.25538 0.91266 0.24735 1.7521 0.22578 2.56-0.09538 1.267-0.68086 2.8769-3.7305 3.042m-25.412 0.03318 25.77-0.03109m-25.41 0.02707c-1.9283-0.0113-3.4714-1.1802-4.0061-3.0345-0.53467-1.8543 0.02744-4.0878 1.4593-5.7982 1.4318-1.7104 2.613-2.4826 4.8307-2.5258m-0.45294-0.08763c0.44278-2.6752 3.0179-4.8998 6.1551-5.4681 3.1372-0.56827 6.282 1.4918 7.9702 4.728" stroke="url(#linearGradient6099)"/>
  <g stroke="#236809" stroke-width="1px">
   <path d="m9.4832 27.455s-0.016368 1.4809 0.094702 2.2097c0.10497 0.68884 0.25756 1.3819 0.53664 2.0203 0.29932 0.68475 0.72549 1.3163 1.1996 1.894 0.38715 0.47179 1.0024 0.97505 1.3258 1.2627 0.73588 0.65437 1.6099 0.94702 1.6099 0.94702" stroke-linecap="round"/>
   <path d="m11.44 36.578h3.5987l-0.1894-3.2199"/>
   <path d="m14.695 30.331-0.15466-2.8711 3.05-0.20328"/>
   <path d="m15.203 27.942s1.1914 1.1887 1.6861 1.8653c0.43396 0.5936 0.85264 1.2174 1.1105 1.906 0.33708 0.90021 0.49504 2.0865 0.54186 2.8324" stroke-linecap="round"/>
   <path d="m41.518 22.528s0.01637 1.4809-0.0947 2.2097c-0.10497 0.68884-0.25756 1.3819-0.53664 2.0203-0.29932 0.68475-0.72549 1.3163-1.1996 1.894-0.38715 0.47179-1.0024 0.97505-1.3258 1.2627-0.73588 0.65437-1.6099 0.94702-1.6099 0.94702" stroke-linecap="round"/>
   <path d="m39.246 32.149-3.4724-0.82075 0.88388-2.9042"/>
   <path d="m35.975 25.757 0.58764-2.8713-3.3632-0.23196"/>
   <path d="m35.577 23.59s-1.2951 0.75254-1.8313 1.2654c-0.59278 0.56696-1.1318 1.2211-1.4876 1.9602-0.40984 0.85142-0.67523 1.5928-0.69603 2.748" stroke-linecap="round"/>
  </g>
 </g>
 <g>
  <g stroke="#96a3b1" stroke-linecap="round">
   <path d="m27.997 3.5h15.938c0.79335 0 1.5531 0.74082 1.5531 1.49v12.689c0 1.0143-0.37464 0.82075-1.389 0.82075h-16.285c-1.0143 0-1.3258 0.13044-1.3258-0.88388v-12.582c0-0.74915 0.67137-1.5342 1.5089-1.5342z" fill="#eee" stroke-linejoin="round"/>
   <rect x="24.5" y="18.525" width="23" height="2" rx="1" ry="1" fill="#e0e0e0" stroke-linejoin="round" stroke-width=".99999"/>
   <rect x="28.488" y="5.4775" width="14.959" height="10.033" fill="url(#linearGradient5)"/>
  </g>
  <path d="m31.5 5.5v8.6478l2-2.1805 2 2.1805v-8.6478z" fill="#09cece" stroke="#008080"/>
 </g>
 <g>
  <rect x=".5" y=".5" width="23" height="19" rx="1.5451" ry="1.5035" fill="url(#linearGradient7)" stroke="#96a3b1" stroke-linecap="round" stroke-linejoin="round"/>
  <rect x="2.5" y="2.5" width="19" height="13" fill="url(#linearGradient4)" stroke="#96a3b1" stroke-linecap="round"/>
  <path d="m5.5 3.4777v8.6478l2-2.1805 2 2.1805v-8.6478z" fill="#09cece" stroke="#008080"/>
 </g>
 <g transform="translate(-24,2)" stroke="#96a3b1">
  <path d="m33.714 17.488-1.5127 4.2931" fill="none" stroke-width="1px"/>
  <path d="m38.26 17.551 1.3877 3.9806" fill="none" stroke-width="1px"/>
  <path d="m32.33 21.51-0.22321-0.0625m7.5 0.0625h1.047c0.17312 0 0.84375 0.60812 0.84375 0.84375v0.5254c0 0.17312-0.42062 0.625-0.59375 0.625h-9.7042c-0.17312 0-0.6875-0.38938-0.6875-0.5625v-0.5879c0-0.17312 0.70202-0.88216 0.875-0.875l0.75539 0.03125" fill="#fff" stroke-linecap="round" stroke-linejoin="round"/>
 </g>
 <path d="m7.0625 24.536 0.34375-0.49476 0.40419 0.01039c0.5927 0.01524 0.76935-0.04231 0.85108-0.12417 0.05673-0.05682 0.25164-0.53495 0.43313-1.0625 0.1815-0.52755 0.48054-1.388 0.66454-1.9122l0.33455-0.953 3.7583-2.39e-4 0.60229 1.7344c0.33126 0.95391 0.6202 1.8096 0.64209 1.9016 0.08071 0.33918 0.21945 0.3933 1.0662 0.41595l0.46239 0.02072 0.3125 0.46366-0.0625 0.4324-4.875 0.03125-4.7188-0.03125z" fill="#e0e0e0"/>
</svg>
