<?xml version="1.0" encoding="UTF-8"?>
<svg width="48" height="48" version="1.1" viewBox="0 0 48 48" xmlns="http://www.w3.org/2000/svg">
 <defs>
  <linearGradient id="linearGradient6099" x1="72.261" x2="117.2" y1="89.276" y2="120.21" gradientTransform="matrix(.5318 0 0 .57459 -4.8563 -6.7593)" gradientUnits="userSpaceOnUse">
   <stop stop-color="#9fc6ee" offset="0"/>
   <stop stop-color="#587a85" offset="1"/>
  </linearGradient>
  <linearGradient id="linearGradient6101" x1="76.825" x2="111.76" y1="90.711" y2="109.46" gradientTransform="matrix(.5318 0 0 .57459 -4.8563 -6.7593)" gradientUnits="userSpaceOnUse">
   <stop stop-color="#f5fcff" offset="0"/>
   <stop stop-color="#c0d9e4" offset="1"/>
  </linearGradient>
 </defs>
 <g transform="matrix(1.1258 0 0 1.0726 -27.651 -35.675)">
  <path d="m46.994 45.852s1.8887-0.58027 3.3614-0.71112c0.7938-0.07052 1.8759-0.01317 2.505 0.19039 0.76748 0.24834 1.744 0.81215 2.3412 1.5593 0.57707 0.72196 1.079 1.7913 1.2052 2.5126 0.30625 1.7507 0.25931 2.4282 0.25931 2.4282m-0.52126-1.2498c0.95984 0.21145 2.9599 0.99183 3.584 1.6204 0.42591 0.39657 1.7494 1.4987 2.1678 3.0081 0.28035 1.0542 0.27154 2.0237 0.24785 2.957-0.1047 1.4635-0.74742 3.323-4.0953 3.5136m-27.896 0.03833 28.289-0.03591m-27.894 0.03126a5.4144 6.8243 30.81 0 1-4.3977-3.505 5.4144 6.8243 30.81 0 1 1.6019-6.6971 5.4144 6.8243 30.81 0 1 5.8851-2.7132m-1.0794-0.3054a7.4003 8.3541 89.031 0 1 6.5489-6.2429 7.4003 8.3541 89.031 0 1 8.8271 3.3124" fill="none" stroke="url(#linearGradient6099)" stroke-width="2.7299"/>
  <path d="m29.969 60.497c-1.485-0.25161-2.5358-1.3495-2.8691-2.9977-0.09249-0.45731-0.09851-1.441-0.01176-1.9213 0.49589-2.7454 2.4806-4.9903 4.925-5.571 0.18941-0.04499 0.44278-0.06566 0.88077-0.07185l0.61487-0.0087 0.12075-0.92705c0.13425-1.0307 0.18364-1.2194 0.48235-1.8428 0.262-0.54682 0.57251-0.99939 1.0256-1.4948 2.6661-2.9152 7.6007-3.2304 10.727-0.68515 0.34645 0.28206 0.80996 0.76005 1.049 1.0817 0.16519 0.22232 0.20028 0.29833 0.27192 0.58905 0.07397 0.30017 0.08904 0.33166 0.14957 0.31262 0.65404-0.20569 2.0679-0.52204 2.7417-0.61346 0.60783-0.08247 1.8008-0.05653 2.2447 0.04881 0.71848 0.17049 1.4792 0.6212 1.9682 1.1661 0.36611 0.408 0.79611 1.1813 0.97385 1.7514 0.09086 0.29141 0.24914 1.3147 0.30089 1.9452l0.04042 0.49235 0.13656 0.01781c0.07511 0.0098 0.24107 0.02746 0.3688 0.03925 0.52838 0.04873 2.2137 0.75135 2.7418 1.143 0.24645 0.18279 0.90357 0.82212 1.1666 1.135 0.816 0.97065 1.0421 1.7107 1.043 3.4138 3.3e-4 0.6391-0.01154 0.86406-0.05695 1.0761-0.18643 0.87104-0.72014 1.4271-1.6368 1.7052-0.73968 0.22445-0.13238 0.20761-8.5088 0.23592-12.87 0.0435-20.56 0.03631-20.89-0.01954z" fill="url(#linearGradient6101)" stroke-width="0"/>
 </g>
 <g transform="translate(-4.9095e-5 -6)" stroke-linejoin="round">
  <path d="m45.438 47h-10.887c-1.0742-0.17819-1.9189-1.1337-1.4082-2.4324l5.3496-10.686c0.81353-1.273 2.3828-1.0718 2.9497-0.0089l5.4922 10.909c0.29881 1.1703-0.38714 2.053-1.4965 2.2181z" fill="#ffbf00" stroke="#f58e00" stroke-width="2"/>
  <path d="m39.974 37.018 0.025888 2.9485" fill="none" stroke="#fff" stroke-linecap="round" stroke-width="2"/>
  <path d="m40 43.5v0.06034" fill="none" stroke="#fff" stroke-linecap="round" stroke-width="3"/>
 </g>
 <path d="m14 35.935 19.952-26.935" fill="none" stroke="#fefefe" stroke-linecap="round" stroke-width="4"/>
 <path d="m12 34.935 19.952-26.935" fill="none" stroke="#f00" stroke-linecap="round" stroke-width="4"/>
</svg>
