<?xml version="1.0" encoding="UTF-8"?>
<svg id="SVGRoot" width="32" height="32" version="1.1" viewBox="0 0 32 32" xmlns="http://www.w3.org/2000/svg" xmlns:xlink="http://www.w3.org/1999/xlink">
 <defs>
  <linearGradient id="linearGradient1728" x1="24.233" x2="27.329" y1="1043.4" y2="1047.6" gradientTransform="matrix(-.99999 0 0 -1 33.001 1056.4)" gradientUnits="userSpaceOnUse">
   <stop stop-color="#367b1d" offset="0"/>
   <stop stop-color="#34c604" offset="1"/>
  </linearGradient>
  <linearGradient id="linearGradient1722" x1="22.156" x2="28.346" y1="1044.4" y2="1049.1" gradientTransform="translate(-1.9838 -1022.3)" gradientUnits="userSpaceOnUse">
   <stop stop-color="#34c604" offset="0"/>
   <stop stop-color="#367b1d" offset="1"/>
  </linearGradient>
  <linearGradient id="linearGradient3376" x1="18.696" x2="26.231" y1="24.042" y2="29.042" gradientTransform="matrix(.88295 0 0 .99821 -11.443 -3.6909)" gradientUnits="userSpaceOnUse">
   <stop stop-color="#f5fcff" offset="0"/>
   <stop stop-color="#c0d9e4" offset="1"/>
  </linearGradient>
  <linearGradient id="linearGradient3340" x1="18.294" x2="30.963" y1="23.149" y2="30.605" gradientTransform="matrix(.88295 0 0 .99821 -11.443 -3.6909)" gradientUnits="userSpaceOnUse">
   <stop stop-color="#7cb4ee" offset="0"/>
   <stop stop-color="#587a85" offset="1"/>
  </linearGradient>
  <linearGradient id="linearGradient2704" x1="4.8941" x2="2.0275" y1="8.7911" y2="2.0855" gradientTransform="translate(14,2)" gradientUnits="userSpaceOnUse">
   <stop stop-color="#068d8d" offset="0"/>
   <stop stop-color="#08bfb6" offset="1"/>
  </linearGradient>
  <linearGradient id="linearGradient2682" x1=".19068" x2="5.6186" y1="1.9901" y2="10.03" gradientTransform="translate(14,2)" gradientUnits="userSpaceOnUse">
   <stop stop-color="#048c8c" offset="0"/>
   <stop stop-color="#024747" offset="1"/>
  </linearGradient>
 </defs>
 <g>
  <g>
   <path d="m26.49 18.501 2.0044-5e-4 0.02344 3.5716c-0.05836 0.8127-0.14796 1.391-0.94851 2.2272-0.78092 0.8583-1.8821 1.1776-2.7646 1.2156l-3.2995-0.016v1.8481l-2.7912-2.7994 2.7976-2.6797v1.6385l2.9961-1e-3c0.34682-1e-3 0.88896-0.088 1.392-0.589 0.49901-0.4587 0.59177-1.0659 0.60641-1.3996z" fill="url(#linearGradient1722)" stroke="#236809" stroke-width="1px"/>
   <path d="m4.5275 15.556-2.0044 5e-4 -0.023-3.5716c0.058-0.8127 0.1479-1.391 0.94849-2.2272 0.7809-0.8583 1.8821-1.1776 2.7646-1.2156l3.2995 0.016v-1.8481l2.7911 2.7994-2.7976 2.6797v-1.6385h-2.9961c-0.3468 0-0.88889 0.088-1.392 0.589-0.499 0.4587-0.5918 1.0659-0.6064 1.3996z" fill="url(#linearGradient1728)" stroke="#236809" stroke-width="1px"/>
   <path d="m10.473 27.681h-7.9229s-1.1175-0.33971-1.4935-0.79366c-0.34695-0.41891-0.54417-1.0291-0.55589-1.6028-0.013633-0.66764 0.22881-1.3518 0.57003-1.897 0.26416-0.42201 0.66274-0.74297 1.0782-0.95896 0.46039-0.23934 1.4913-0.33375 1.4913-0.33375s0.34057-1.2905 0.67207-1.837c0.31282-0.51567 0.72851-0.96992 1.2019-1.2933 0.48872-0.33381 0.9931-0.457 1.7014-0.46472 0.37171-0.0041 1.3685 0.12158 2.1264 0.3929 0.65219 0.23348 1.2569 0.61719 1.9133 1.3921 0.80476 0.95002 1.2864 2.7202 1.2864 2.7202s0.74492-0.25142 1.1287-0.25701c0.42078-6e-3 0.85543 0.06194 1.2436 0.24565 0.33315 0.15768 0.66867 0.34491 0.88186 0.60029 0.20848 0.24973 0.40854 0.68568 0.49907 1.063 0.07383 0.30771 0.10458 1.2154-0.01154 1.647-0.10642 0.39557-0.30516 0.81458-0.51967 1.0254-0.37019 0.36389-0.87609 0.4015-0.87609 0.4015z" fill="url(#linearGradient3376)" stroke="url(#linearGradient3340)" stroke-width="1px"/>
   <path d="m14.5 2.5v13.812l2.5-3.4827 2.5 3.4827v-13.812z" fill="url(#linearGradient2704)" stroke="url(#linearGradient2682)"/>
  </g>
  <g fill="none" stroke="#38383d">
   <path d="m21.5 4.5 1 0.013076" stroke-linecap="round" stroke-width="1px"/>
   <path d="m24.003 4.5 6.9713 1e-7" stroke-width="1px"/>
  </g>
  <g transform="translate(0 3)" fill="none" stroke="#38383d">
   <path d="m21.5 4.5 1 0.013076" stroke-linecap="round" stroke-width="1px"/>
   <path d="m24.003 4.5 6.9713 1e-7" stroke-width="1px"/>
  </g>
  <g transform="translate(0 6)" fill="none" stroke="#38383d">
   <path d="m21.5 4.5 1 0.013076" stroke-linecap="round" stroke-width="1px"/>
   <path d="m24.003 4.5 6.9713 1e-7" stroke-width="1px"/>
  </g>
  <g transform="translate(0 9)" fill="none" stroke="#38383d">
   <path d="m21.5 4.5 1 0.013076" stroke-linecap="round" stroke-width="1px"/>
   <path d="m24.003 4.5 6.9713 1e-7" stroke-width="1px"/>
  </g>
 </g>
</svg>
