<?xml version="1.0" encoding="UTF-8"?>
<svg width="48" height="48" version="1.1" viewBox="0 0 48 48" xmlns="http://www.w3.org/2000/svg">
 <defs>
  <linearGradient id="linearGradient6099" x1="72.261" x2="117.2" y1="89.276" y2="120.21" gradientTransform="matrix(.59872 0 0 .61632 -33.119 -42.925)" gradientUnits="userSpaceOnUse">
   <stop stop-color="#cbe0f6" offset="0"/>
   <stop stop-color="#90adb6" offset="1"/>
  </linearGradient>
  <linearGradient id="linearGradient6101" x1="76.825" x2="111.76" y1="90.711" y2="109.46" gradientTransform="matrix(.59872 0 0 .61632 -33.119 -42.925)" gradientUnits="userSpaceOnUse">
   <stop stop-color="#f5fcff" offset="0"/>
   <stop stop-color="#c0d9e4" offset="1"/>
  </linearGradient>
 </defs>
 <path d="m25.256 13.507s2.1264-0.62241 3.7844-0.76277c0.89369-0.07564 2.112-0.01413 2.8202 0.20422 0.86406 0.26638 1.9635 0.87113 2.6358 1.6725 0.64969 0.77439 1.2148 1.9214 1.3569 2.6951 0.34479 1.8778 0.29194 2.6046 0.29194 2.6046m-0.58686-1.3406c1.0806 0.22681 3.3324 1.0639 4.035 1.7381 0.47951 0.42537 1.9695 1.6075 2.4406 3.2266 0.31563 1.1308 0.30571 2.1707 0.27904 3.1718-0.11788 1.5698-0.84148 3.5643-4.6107 3.7688m-31.406 0.041113 31.849-0.038518m-31.404 0.033531a6.0056 7.4298 36.683 0 1-4.9511-3.7596 6.0056 7.4298 36.683 0 1 1.8035-7.1835 6.0056 7.4298 36.683 0 1 6.6257-2.9102m-1.2152-0.32758a7.9378 9.4053 89.309 0 1 7.373-6.6963 7.9378 9.4053 89.309 0 1 9.9379 3.553" fill="none" stroke="url(#linearGradient6099)" stroke-width="2.9999"/>
 <path d="m6.0889 29.216c-1.6719-0.26988-2.8549-1.4475-3.2301-3.2154-0.10413-0.49052-0.11091-1.5457-0.01324-2.0608 0.55829-2.9448 2.7928-5.3527 5.5448-5.9756 0.21325-0.04826 0.4985-0.07043 0.99161-0.07707l0.69224-0.0093 0.13594-0.99438c0.15114-1.1056 0.20675-1.308 0.54305-1.9766 0.29497-0.58653 0.64455-1.072 1.1547-1.6034 3.0016-3.1269 8.5572-3.465 12.077-0.73491 0.39005 0.30254 0.91188 0.81525 1.181 1.1603 0.18598 0.23847 0.22548 0.32 0.30614 0.63183 0.08328 0.32197 0.10024 0.35575 0.16839 0.33532 0.73634-0.22063 2.3281-0.55995 3.0867-0.65801 0.68432-0.08846 2.0274-0.06064 2.5272 0.05235 0.80889 0.18287 1.6653 0.66632 2.2159 1.2508 0.41218 0.43763 0.89629 1.2671 1.0964 1.8786 0.10229 0.31257 0.28049 1.4102 0.33875 2.0865l0.04551 0.52811 0.15374 0.0191c0.08456 0.01051 0.27141 0.02945 0.41521 0.0421 0.59487 0.05227 2.4923 0.80592 3.0868 1.226 0.27746 0.19606 1.0173 0.88183 1.3134 1.2174 0.91868 1.0411 1.1732 1.8349 1.1742 3.6617 3.72e-4 0.68552-0.01299 0.92681-0.06412 1.1543-0.20989 0.9343-0.81076 1.5307-1.8428 1.829-0.83276 0.24075-0.14904 0.22269-9.5795 0.25305-14.49 0.04666-23.147 0.03895-23.519-0.02096z" fill="url(#linearGradient6101)" stroke-width="0"/>
 <g transform="translate(-4.9095e-5 -6)" stroke-linejoin="round">
  <path d="m45.438 47h-10.887c-1.0742-0.17819-1.9189-1.1337-1.4082-2.4324l5.3496-10.686c0.81353-1.273 2.3828-1.0718 2.9497-0.0089l5.4922 10.909c0.29881 1.1703-0.38714 2.053-1.4965 2.2181z" fill="#ffbf00" stroke="#f58e00" stroke-width="2"/>
  <path d="m39.974 37.018 0.025888 2.9485" fill="none" stroke="#fff" stroke-linecap="round" stroke-width="2"/>
  <path d="m40 43.5v0.06034" fill="none" stroke="#fff" stroke-linecap="round" stroke-width="3"/>
 </g>
 <path d="m14 35.935 19.952-26.935" fill="none" stroke="#2a2a2e" stroke-linecap="square" stroke-width="4"/>
 <path d="m12 34.935 19.952-26.935" fill="none" stroke="#fb4b4b" stroke-linecap="round" stroke-width="4"/>
</svg>
