<?xml version="1.0" encoding="UTF-8"?>
<svg id="SVGRoot" width="60" height="48" version="1.1" viewBox="0 0 60 48" xmlns="http://www.w3.org/2000/svg" xmlns:xlink="http://www.w3.org/1999/xlink">
 <defs>
  <linearGradient id="linearGradient6101" x1="76.825" x2="111.76" y1="90.711" y2="109.46" gradientTransform="matrix(.43894 0 0 .43415 -9.3415 -5.7053)" gradientUnits="userSpaceOnUse">
   <stop stop-color="#f5fcff" offset="0"/>
   <stop stop-color="#c0d9e4" offset="1"/>
  </linearGradient>
  <linearGradient id="linearGradient6099" x1="72.261" x2="117.2" y1="89.276" y2="120.21" gradientTransform="matrix(.42527 0 0 .38229 -8.084 -.028285)" gradientUnits="userSpaceOnUse">
   <stop stop-color="#c9dff8" offset="0"/>
   <stop stop-color="#90aeb6" offset="1"/>
  </linearGradient>
  <linearGradient id="linearGradient5" x1="33.488" x2="42.693" y1="6.8064" y2="15.371" gradientTransform="matrix(1.0027 0 0 1.0964 9.9345 .47187)" gradientUnits="userSpaceOnUse">
   <stop stop-color="#d2f8f9" offset="0"/>
   <stop stop-color="#a7eef1" offset="1"/>
  </linearGradient>
  <linearGradient id="linearGradient7" x1="29.768" x2="46.674" y1="5.7091" y2="26.67" gradientTransform="matrix(1.2072 0 0 1.1344 -33.906 -4.6046)" gradientUnits="userSpaceOnUse">
   <stop stop-color="#fcfcfc" offset="0"/>
   <stop stop-color="#e0e0e0" offset=".5"/>
   <stop stop-color="#ccc" offset="1"/>
  </linearGradient>
  <linearGradient id="linearGradient4" x1="10.25" x2="19.688" y1="6.3125" y2="15.625" gradientUnits="userSpaceOnUse">
   <stop stop-color="#d1e3fc" offset="0"/>
   <stop stop-color="#9cc3fc" offset="1"/>
  </linearGradient>
 </defs>
 <path d="m19.403 45.112c-1.2257-0.19011-2.093-1.0196-2.3681-2.265-0.07633-0.34553-0.08131-1.0888-0.0097-1.4517 0.40929-2.0744 2.0474-3.7706 4.065-4.2093 0.15634-0.034 0.36546-0.04961 0.72697-0.05429l0.5075-0.0066 0.09967-0.70047c0.1108-0.77876 0.15157-0.92134 0.39812-1.3924 0.21625-0.41317 0.47254-0.75512 0.84651-1.1294 2.2006-2.2027 6.2734-2.4408 8.8538-0.51769 0.28596 0.21312 0.66853 0.57428 0.8658 0.81732 0.13634 0.16798 0.1653 0.22541 0.22444 0.44507 0.06106 0.2268 0.0735 0.2506 0.12345 0.23621 0.53983-0.15541 1.7068-0.39444 2.263-0.46352 0.50169-0.06232 1.4864-0.04272 1.8528 0.03687 0.59302 0.12882 1.2209 0.46937 1.6245 0.8811 0.30218 0.30828 0.6571 0.89259 0.8038 1.3233 0.075 0.22018 0.20564 0.99338 0.24835 1.4698l0.03337 0.37201 0.11271 0.01346c0.062 0.0075 0.19898 0.02075 0.30441 0.02965 0.43612 0.03683 1.8272 0.56771 2.263 0.86365 0.20341 0.13811 0.74579 0.62118 0.9629 0.85759 0.67351 0.7334 0.86013 1.2926 0.86087 2.5794 2.73e-4 0.48289-0.0095 0.65287-0.04701 0.81308-0.15387 0.65814-0.59439 1.0783-1.351 1.2884-0.61052 0.16959-0.10926 0.15686-7.023 0.17826-10.622 0.03288-16.97 0.02744-17.242-0.01476z" fill="url(#linearGradient6101)" stroke-width="0"/>
 <g fill="none">
  <path d="m33.652 34.976s1.2388-0.38607 2.4165-0.47313c0.63478-0.04692 1.5002-0.0088 2.0032 0.12667 0.61374 0.16523 1.3946 0.54035 1.8722 1.0374 0.46147 0.48034 0.86289 1.1918 0.9638 1.6717 0.2449 1.1648 0.05218 1.3099 0.05218 1.3099m-0.33925-0.22018c0.76757 0.14068 1.9402 0.18442 2.9436 0.77243 0.72856 0.43366 1.3989 0.99716 1.7336 2.0014 0.22419 0.70136 0.21714 1.3464 0.1982 1.9674-0.08373 0.97369-0.5977 2.2109-3.2749 2.3377m-22.308 0.0255 22.622-0.02389m-22.307 0.0208c-1.6928-0.0087-3.0474-0.90695-3.5168-2.332-0.46937-1.425 0.02409-3.1414 1.281-4.4558 1.257-1.3144 2.2938-1.9079 4.2407-1.941m-0.39762-0.06734c0.3887-2.0559 2.483-3.7169 5.237-4.1536 2.754-0.4367 5.5769 0.44462 7.0589 2.2039" stroke="url(#linearGradient6099)"/>
  <path d="m25.764 48.489 13.889-13.822" stroke="#2a2a2e" stroke-width="1.6"/>
  <path d="m25.019 47.012 13.993-13.97" stroke="#fb4b4b" stroke-linecap="round" stroke-width="2"/>
 </g>
 <g transform="translate(12)" stroke-linejoin="round">
  <path d="m45.438 47h-10.887c-1.0742-0.17819-1.9189-1.1337-1.4082-2.4324l5.3496-10.686c0.81353-1.273 2.3828-1.0718 2.9497-0.0089l5.4922 10.909c0.29881 1.1703-0.38714 2.053-1.4965 2.2181z" fill="#ffbf00" stroke="#f58e00" stroke-width="2"/>
  <path d="m39.974 37.018 0.025888 2.9485" fill="none" stroke="#fff" stroke-linecap="round" stroke-width="2"/>
  <path d="m40 43.5v0.06034" fill="none" stroke="#fff" stroke-linecap="round" stroke-width="3"/>
 </g>
 <g fill="none" stroke="#ededf0" stroke-width="1px">
  <path d="m10.546 27.518s-0.01637 1.4809 0.0947 2.2097c0.10497 0.68884 0.25756 1.3819 0.53664 2.0203 0.29932 0.68475 0.72549 1.3163 1.1996 1.894 0.38715 0.47179 1.0024 0.97505 1.3258 1.2627 0.73588 0.65437 1.6099 0.94702 1.6099 0.94702" stroke-dasharray="1,2" stroke-linecap="round"/>
  <path d="m12.503 36.641h3.5987l-0.1894-3.2199"/>
  <path d="m15.695 30.331-0.15466-2.8711 3.05-0.20328"/>
  <path d="m16.203 27.942s1.1914 1.1887 1.6861 1.8653c0.43396 0.5936 0.85264 1.2174 1.1105 1.906 0.33708 0.90021 0.49504 2.0865 0.54186 2.8324" stroke-dasharray="1,2" stroke-linecap="round"/>
  <path d="m48.518 23.528s0.01637 1.4809-0.0947 2.2097c-0.10497 0.68884-0.25756 1.3819-0.53664 2.0203-0.29932 0.68475-0.72549 1.3163-1.1996 1.894-0.38715 0.47179-1.0024 0.97505-1.3258 1.2627-0.73588 0.65437-1.6099 0.94702-1.6099 0.94702" stroke-dasharray="1,2" stroke-linecap="round"/>
  <path d="m46.246 33.149-3.4724-0.82075 0.88388-2.9042"/>
  <path d="m42.975 26.757 0.58764-2.8713-3.3632-0.23196"/>
  <path d="m42.577 24.59s-1.2951 0.75254-1.8313 1.2654c-0.59278 0.56696-1.1318 1.2211-1.4876 1.9602-0.40984 0.85142-0.67523 1.5928-0.69603 2.748" stroke-dasharray="1,2" stroke-linecap="round"/>
 </g>
 <g>
  <g stroke="#96a3b1" stroke-linecap="round">
   <path d="m38.009 4.5h15.938c0.79335 0 1.5531 0.74082 1.5531 1.49v12.689c0 1.0143-0.37464 0.82075-1.389 0.82075h-16.285c-1.0143 0-1.3258 0.13044-1.3258-0.88388v-12.582c0-0.74915 0.67137-1.5342 1.5089-1.5342z" fill="#eee" stroke-linejoin="round"/>
   <rect x="32.5" y="19.5" width="27" height="2" rx="1" ry="1" fill="#e0e0e0" stroke-linejoin="round" stroke-width=".99999"/>
   <rect x="38.5" y="6.4775" width="15" height="11" fill="url(#linearGradient5)"/>
  </g>
  <path d="m41.512 6.5v8.6478l2-3.1805 2 3.1805v-8.6478z" fill="#09cece" stroke="#008080"/>
 </g>
 <g>
  <rect x=".5" y=".5" width="23" height="19" rx="1.5451" ry="1.5035" fill="url(#linearGradient7)" stroke="#96a3b1" stroke-linecap="round" stroke-linejoin="round"/>
  <rect x="2.5" y="2.5" width="19" height="13" fill="url(#linearGradient4)" stroke="#96a3b1" stroke-linecap="round"/>
  <path d="m5.5 3.4777v8.6478l2-3.1805 2 3.1805v-8.6478z" fill="#09cece" stroke="#008080"/>
 </g>
 <g transform="translate(-24 2)" stroke="#96a3b1">
  <path d="m33.714 17.488-1.5127 4.2931" fill="none" stroke-width="1px"/>
  <path d="m38.26 17.551 1.3877 3.9806" fill="none" stroke-width="1px"/>
  <path d="m32.33 21.51-0.22321-0.0625m7.5 0.0625h1.047c0.17312 0 0.84375 0.60812 0.84375 0.84375v0.5254c0 0.17312-0.42062 0.625-0.59375 0.625h-9.7042c-0.17312 0-0.6875-0.38938-0.6875-0.5625v-0.5879c0-0.17312 0.70202-0.88216 0.875-0.875l0.75539 0.03125" fill="#fff" stroke-linecap="round" stroke-linejoin="round"/>
 </g>
 <g>
  <path d="m7.0625 24.536 0.34375-0.49476 0.40419 0.01039c0.5927 0.01524 0.76935-0.04231 0.85108-0.12417 0.05673-0.05682 0.25164-0.53495 0.43313-1.0625 0.1815-0.52755 0.48054-1.388 0.66454-1.9122l0.33455-0.953 3.7583-2.39e-4 0.60229 1.7344c0.33126 0.95391 0.6202 1.8096 0.64209 1.9016 0.08071 0.33918 0.21945 0.3933 1.0662 0.41595l0.46239 0.02072 0.3125 0.46366-0.0625 0.4324-4.875 0.03125-4.7188-0.03125z" fill="#e0e0e0"/>
  <rect x=".5" y="23.5" width="23" height="2" rx="1" ry="1" fill="#f5f5f5" stroke="#96a3b1" stroke-linecap="round" stroke-linejoin="round" stroke-width=".99999"/>
  <rect x="25.437" y="23.5" width="4" height="2" rx="1" ry="1" fill="#f5f5f5" stroke="#96a3b1" stroke-linecap="round" stroke-linejoin="round"/>
 </g>
</svg>
